<svg xmlns="http://www.w3.org/2000/svg" xmlns:xlink="http://www.w3.org/1999/xlink" width="432" zoomAndPan="magnify" viewBox="0 0 324 67.499998" height="90" preserveAspectRatio="xMidYMid meet" version="1.0"><defs><clipPath id="374edaff1b"><path d="M 1.191406 0 L 322.808594 0 L 322.808594 67.003906 L 1.191406 67.003906 Z M 1.191406 0 " clip-rule="nonzero"/></clipPath><clipPath id="80efb31b6b"><path d="M 1.191406 0 L 322.808594 0 L 322.808594 67.003906 L 1.191406 67.003906 Z M 1.191406 0 " clip-rule="nonzero"/></clipPath></defs><g clip-path="url(#374edaff1b)"><path fill="#000000" d="M 1.859375 0 L 1.859375 26.800781 L 15.207031 26.800781 L 15.207031 40.203125 L 28.550781 40.203125 L 28.550781 53.601562 L 41.894531 53.601562 L 41.894531 67.003906 L 135.308594 67.003906 L 135.308594 53.601562 L 148.65625 53.601562 L 148.65625 40.203125 L 162 40.203125 L 162 13.402344 L 175.34375 13.402344 L 175.34375 26.800781 L 188.691406 26.800781 L 188.691406 40.203125 L 202.035156 40.203125 L 202.035156 53.601562 L 295.449219 53.601562 L 295.449219 40.203125 L 308.792969 40.203125 L 308.792969 26.800781 L 322.140625 26.800781 L 322.140625 0 L 1.859375 0 " fill-opacity="1" fill-rule="nonzero"/></g><path fill="#ffffff" d="M 41.894531 26.800781 L 41.894531 40.203125 L 55.242188 40.203125 L 55.242188 26.800781 Z M 55.242188 53.601562 L 68.585938 53.601562 L 68.585938 40.203125 L 55.242188 40.203125 Z M 81.929688 53.601562 L 95.277344 53.601562 L 95.277344 40.203125 L 81.929688 40.203125 Z M 28.550781 13.402344 L 28.550781 26.800781 L 41.894531 26.800781 L 41.894531 13.402344 Z M 68.585938 13.402344 L 55.242188 13.402344 L 55.242188 26.800781 L 68.585938 26.800781 Z M 68.585938 26.800781 L 68.585938 40.203125 L 81.929688 40.203125 L 81.929688 26.800781 Z M 228.722656 13.402344 L 228.722656 26.800781 L 242.070312 26.800781 L 242.070312 13.402344 Z M 215.378906 40.203125 L 228.722656 40.203125 L 228.722656 26.800781 L 215.378906 26.800781 Z M 242.070312 26.800781 L 242.070312 40.203125 L 255.414062 40.203125 L 255.414062 26.800781 Z M 202.035156 13.402344 L 202.035156 26.800781 L 215.378906 26.800781 L 215.378906 13.402344 L 202.035156 13.402344 " fill-opacity="1" fill-rule="nonzero"/><g clip-path="url(#80efb31b6b)"><path fill="#000000" d="M 1.859375 0 L 1.859375 26.800781 L 15.207031 26.800781 L 15.207031 40.203125 L 28.550781 40.203125 L 28.550781 53.601562 L 41.894531 53.601562 L 41.894531 67.003906 L 135.308594 67.003906 L 135.308594 53.601562 L 148.65625 53.601562 L 148.65625 40.203125 L 162 40.203125 L 162 13.402344 L 175.34375 13.402344 L 175.34375 26.800781 L 188.691406 26.800781 L 188.691406 40.203125 L 202.035156 40.203125 L 202.035156 53.601562 L 295.449219 53.601562 L 295.449219 40.203125 L 308.792969 40.203125 L 308.792969 26.800781 L 322.140625 26.800781 L 322.140625 0 L 1.859375 0 " fill-opacity="1" fill-rule="nonzero"/></g><path fill="#ffffff" d="M 41.894531 26.800781 L 41.894531 40.203125 L 55.242188 40.203125 L 55.242188 26.800781 Z M 55.242188 53.601562 L 68.585938 53.601562 L 68.585938 40.203125 L 55.242188 40.203125 Z M 81.929688 53.601562 L 95.277344 53.601562 L 95.277344 40.203125 L 81.929688 40.203125 Z M 28.550781 13.402344 L 28.550781 26.800781 L 41.894531 26.800781 L 41.894531 13.402344 Z M 68.585938 13.402344 L 55.242188 13.402344 L 55.242188 26.800781 L 68.585938 26.800781 Z M 68.585938 26.800781 L 68.585938 40.203125 L 81.929688 40.203125 L 81.929688 26.800781 Z M 228.722656 13.402344 L 228.722656 26.800781 L 242.070312 26.800781 L 242.070312 13.402344 Z M 215.378906 40.203125 L 228.722656 40.203125 L 228.722656 26.800781 L 215.378906 26.800781 Z M 242.070312 26.800781 L 242.070312 40.203125 L 255.414062 40.203125 L 255.414062 26.800781 Z M 202.035156 13.402344 L 202.035156 26.800781 L 215.378906 26.800781 L 215.378906 13.402344 L 202.035156 13.402344 " fill-opacity="1" fill-rule="nonzero"/></svg>